HIERARCHY
ROOT Hips
{
	OFFSET -3.958830 18.904000 13.208200
	CHANNELS 6 Xposition Yposition Zposition Zrotation Yrotation Xrotation 
	JOINT LHipJoint
	{
		OFFSET 0.000000 0.000000 0.000000
		CHANNELS 3 Zrotation Yrotation Xrotation
		JOINT LeftUpLeg
		{
			OFFSET 1.800000 -1.400000 0.085000
			CHANNELS 3 Zrotation Yrotation Xrotation
			JOINT LeftLeg
			{
				OFFSET 2.215000 -6.000000 0.000000
				CHANNELS 3 Zrotation Yrotation Xrotation
				JOINT LeftFoot
				{
					OFFSET 2.500000 -6.900000 0.000000
					CHANNELS 3 Zrotation Yrotation Xrotation
					JOINT LeftToeBase
					{
						OFFSET 0.200000 -0.500000 1.950000
						CHANNELS 3 Zrotation Yrotation Xrotation
						End Site
						{
							OFFSET 0.000000 0.000000 0.000000
						}
					}
				}
			}
		}
	}
	JOINT RHipJoint
	{
		OFFSET 0.000000 0.000000 0.000000
		CHANNELS 3 Zrotation Yrotation Xrotation
		JOINT RightUpLeg
		{
			OFFSET -1.800000 -1.400000 0.085000
			CHANNELS 3 Zrotation Yrotation Xrotation
			JOINT RightLeg
			{
				OFFSET -2.215000 -6.000000 0.000000
				CHANNELS 3 Zrotation Yrotation Xrotation
				JOINT RightFoot
				{
					OFFSET -2.500000 -6.900000 0.000000
					CHANNELS 3 Zrotation Yrotation Xrotation
					JOINT RightToeBase
					{
						OFFSET -0.200000 -0.500000 1.950000
						CHANNELS 3 Zrotation Yrotation Xrotation
						End Site
						{
							OFFSET 0.000000 0.000000 0.000000
						}
					}
				}
			}
		}
	}
	JOINT LowerBack
	{
		OFFSET 0.000000 0.000000 0.000000
		CHANNELS 3 Zrotation Yrotation Xrotation
		JOINT Spine
		{
			OFFSET -0.087000 1.940000 -0.288900
			CHANNELS 3 Zrotation Yrotation Xrotation
			JOINT Spine1
			{
				OFFSET 0.000000 1.950000 0.060000
				CHANNELS 3 Zrotation Yrotation Xrotation
				JOINT Neck
				{
					OFFSET 0.000000 0.000000 0.000000
					CHANNELS 3 Zrotation Yrotation Xrotation
					JOINT Neck1
					{
						OFFSET 0.000000 1.600000 0.340000
						CHANNELS 3 Zrotation Yrotation Xrotation
						JOINT Head
						{
							OFFSET 0.000000 1.667000 -0.240000
							CHANNELS 3 Zrotation Yrotation Xrotation
							End Site
							{
								OFFSET 0.000000 0.000000 0.000000
							}
						}
					}
				}
				JOINT LeftShoulder
				{
					OFFSET 0.000000 0.000000 0.000000
					CHANNELS 3 Zrotation Yrotation Xrotation
					JOINT LeftArm
					{
						OFFSET 2.700000 1.550000 -0.730000
						CHANNELS 3 Zrotation Yrotation Xrotation
						JOINT LeftForeArm
						{
							OFFSET 5.450000 0.000000 0.000000
							CHANNELS 3 Zrotation Yrotation Xrotation
							JOINT LeftHand
							{
								OFFSET 3.450000 0.000000 0.000000
								CHANNELS 3 Zrotation Yrotation Xrotation
								JOINT LeftHandIndex1
								{
									OFFSET 0.750000 0.000000 0.000000
									CHANNELS 3 Zrotation Yrotation Xrotation
									End Site
									{
										OFFSET 0.000000 0.000000 0.000000
									}
								}
							}
						}
					}
				}
				JOINT RightShoulder
				{
					OFFSET 0.000000 0.000000 0.000000
					CHANNELS 3 Zrotation Yrotation Xrotation
					JOINT RightArm
					{
						OFFSET -2.700000 1.550000 -0.730000
						CHANNELS 3 Zrotation Yrotation Xrotation
						JOINT RightForeArm
						{
							OFFSET -5.450000 0.000000 0.000000
							CHANNELS 3 Zrotation Yrotation Xrotation
							JOINT RightHand
							{
								OFFSET -3.450000 0.000000 0.000000
								CHANNELS 3 Zrotation Yrotation Xrotation
								JOINT RightHandIndex1
								{
									OFFSET -0.750000 0.000000 0.000000
									CHANNELS 3 Zrotation Yrotation Xrotation
									End Site
									{
										OFFSET 0.000000 0.000000 0.000000
									}
								}
							}
						}
					}
				}
			}
		}
	}
}
MOTION
Frames: 4
Frame Time: 0.016667
-0.427290 16.587640 -4.743990 -2.550107 5.069707 5.515006 -15.482087 12.367176 4.254655 22.762553 -2.220704 -25.335783 -18.643869 11.185998 18.744221 0.073195 6.545954 2.023206 0.345060 0.224940 0.220570 17.955890 -10.268861 2.223780 -23.648275 0.661395 -16.206316 4.368087 -4.198369 8.414840 -0.187542 -3.140333 3.152048 0.153160 -0.026050 0.042240 -2.760191 -1.968753 -8.122945 -0.968081 3.424054 7.916911 2.383357 3.778338 7.740351 0.049271 -7.226026 -14.041153 -16.808702 3.240757 35.919912 4.363460 -2.221590 -15.132130 -18.270138 -23.997684 7.087193 -65.146452 -20.415602 3.341262 -0.438926 -16.354836 -1.435390 -3.430600 3.018786 0.429220 -0.163340 0.151440 0.111570 20.034377 31.647496 11.595138 59.197071 14.491550 -1.492622 9.232557 16.792025 0.225553 2.399299 -1.273528 -0.085350 0.225560 -0.059050 -0.097950 
-0.480360 16.582880 -4.742810 -2.583781 5.445343 5.723295 -15.478639 12.369836 4.289148 23.071990 -2.189614 -25.736196 -18.402983 11.080517 18.604147 0.077731 6.503562 2.036632 0.346680 0.228810 0.212850 17.969841 -10.252899 2.188413 -23.455647 0.689684 -16.402945 4.597436 -4.286552 8.967426 -0.184803 -3.123714 3.157812 0.148000 -0.031330 0.039820 -2.789764 -2.031622 -8.097822 -0.781439 3.242797 8.256563 2.236368 3.648814 7.196912 -0.078607 -7.752485 -13.581274 -17.651644 3.023786 34.689243 4.736740 -2.679780 -15.939850 -17.184967 -21.890775 6.662167 -64.787454 -19.348218 2.617911 -1.848982 -17.557671 -1.282699 -3.422853 3.012166 0.429560 -0.177870 0.155800 0.116630 19.098483 29.927661 11.265335 58.999765 13.216553 -2.461481 11.412289 18.230063 0.420110 2.409135 -1.269920 -0.076650 0.224090 -0.063740 -0.088350 
-0.575040 16.581540 -4.735210 -2.415146 6.568043 6.341671 -15.469551 12.406698 4.308128 23.090685 -2.304045 -26.480840 -17.554932 10.556699 17.949546 0.037794 6.294584 2.118464 0.325500 0.207780 0.185150 17.986421 -10.251389 2.137557 -23.154577 0.716159 -16.697412 4.763199 -4.410665 9.835435 -0.160403 -3.122158 3.165862 0.139030 -0.009820 0.038480 -2.838451 -2.150743 -8.033656 -0.600652 2.740458 8.786912 1.654011 3.271556 6.246214 -0.207556 -8.444033 -12.771323 -18.317140 2.479383 31.890119 4.543950 -3.181020 -16.654380 -16.805668 -18.537862 5.899367 -62.602357 -17.088423 1.116126 -4.882228 -20.045877 -0.849531 -3.448503 2.991549 0.413500 -0.167900 0.134600 0.118130 18.760459 27.005427 10.600065 57.880515 11.206283 -3.725464 15.498373 19.932957 0.852332 2.415134 -1.273345 -0.081670 0.229990 -0.050160 -0.077600 
-0.687060 16.579110 -4.722790 -2.309653 7.597480 6.971294 -15.431119 12.463020 4.233390 22.743123 -2.369739 -27.031580 -15.944529 9.782425 17.152705 -0.037412 5.950963 2.254675 0.304880 0.178590 0.160970 18.024822 -10.283481 2.134739 -22.838892 0.781513 -17.159968 5.347773 -4.629673 10.747000 -0.136549 -3.158981 3.155162 0.132650 0.017540 0.039590 -2.961490 -2.185760 -7.930036 0.064586 2.225878 9.275754 0.571553 2.965356 5.470265 -0.271777 -9.089640 -11.957587 -18.683013 1.585425 28.844253 4.205900 -3.930760 -17.361070 -15.461143 -14.608001 5.080474 -59.790972 -14.598520 -0.522993 -8.448361 -23.224567 -0.174750 -3.474937 2.984750 0.400270 -0.153480 0.106980 0.120070 17.262630 23.489046 9.792570 56.846662 9.197452 -5.174634 21.400936 22.629196 1.678076 2.413083 -1.309637 -0.094790 0.239290 -0.033140 -0.071270 
